<svg width="233" height="176" viewBox="0 0 233 176" fill="none" xmlns="http://www.w3.org/2000/svg">
<path d="M30 39L164 138" stroke="#EAEAEA" stroke-width="2"/>
<path d="M203 50L189.693 126" stroke="#EAEAEA" stroke-width="2"/>
<path d="M205 52.5C219.031 52.5 230.5 41.3586 230.5 27.5C230.5 13.6414 219.031 2.5 205 2.5C190.969 2.5 179.5 13.6414 179.5 27.5C179.5 41.3586 190.969 52.5 205 52.5Z" fill="white" stroke="#B0D7D7" stroke-width="5"/>
<path d="M185.5 173.5C199.307 173.5 210.5 162.307 210.5 148.5C210.5 134.693 199.307 123.5 185.5 123.5C171.693 123.5 160.5 134.693 160.5 148.5C160.5 162.307 171.693 173.5 185.5 173.5Z" fill="white" stroke="#B0D7D7" stroke-width="5"/>
<path d="M16.5 45.5C24.232 45.5 30.5 39.232 30.5 31.5C30.5 23.768 24.232 17.5 16.5 17.5C8.76801 17.5 2.5 23.768 2.5 31.5C2.5 39.232 8.76801 45.5 16.5 45.5Z" fill="white" stroke="#B0D7D7" stroke-width="5"/>
</svg>
