<svg width="242" height="195" viewBox="0 0 242 195" fill="none" xmlns="http://www.w3.org/2000/svg">
<path d="M188 115L37.9233 132.347L81.564 24.6929" stroke="#C4C4C4"/>
<path d="M192.519 123.077C199.543 132.378 212.777 134.224 222.077 127.201C231.378 120.177 233.224 106.943 226.201 97.6425C219.177 88.3416 205.943 86.4956 196.643 93.5192C187.342 100.543 185.496 113.777 192.519 123.077Z" stroke="#B0D7D7" stroke-width="4"/>
<path d="M28.2337 137.983C32.2321 143.278 39.6007 144.454 44.6919 140.609C49.7831 136.765 50.6689 129.355 46.6705 124.061C42.672 118.766 35.3034 117.59 30.2123 121.435C25.1211 125.279 24.2352 132.689 28.2337 137.983Z" fill="white"/>
<path d="M43.4866 139.013C39.3353 142.148 33.2075 141.251 29.8297 136.778C26.4519 132.305 27.2662 126.165 31.4175 123.031C35.5688 119.896 41.6967 120.793 45.0744 125.266C48.4522 129.739 47.6379 135.878 43.4866 139.013Z" stroke="#7A98AF" stroke-opacity="0.75" stroke-width="4"/>
<path d="M80.2534 21.9359C83.4324 26.1456 89.4222 26.9812 93.6319 23.8022C97.8416 20.6232 98.6772 14.6334 95.4982 10.4237C92.3192 6.21397 86.3294 5.37841 82.1197 8.55742C77.91 11.7364 77.0744 17.7262 80.2534 21.9359Z" stroke="#6BA48C" stroke-opacity="0.64" stroke-width="4"/>
</svg>
